<svg id="Layer_1_1_" enable-background="new 0 0 64 64" height="512" viewBox="0 0 64 64" width="512" xmlns="http://www.w3.org/2000/svg"><path d="m8 8c0-2.761-2.239-5-5-5h44c2.761 0 5 2.239 5 5v53h-39c-2.761 0-5-2.239-5-5z" fill="#fffcf5"/><path d="m11 26h37v20h-37z" fill="#ededed"/><path d="m49 42c1.657 0 3-1.343 3-3v-14h-6v14c0 1.657 1.343 3 3 3z" fill="#5aa2ff"/><path d="m48 39v-14h-2v14c0 1.657 1.343 3 3 3 .353 0 .686-.072 1-.184-1.163-.413-2-1.512-2-2.816z" fill="#2b67b3"/><path d="m58 55h-6-34v1c0 2.761-2.239 5-5 5h39c3.314 0 6-2.686 6-6z" fill="#e8e5df"/><path d="m42.923 28.028v13.664c0 1.827 1.481 3.308 3.308 3.308 1.739 0 3.149-1.347 3.282-3.052-.168.029-.337.052-.513.052-1.657 0-3-1.343-3-3v-12.393c-5.173-1.334-9-6.017-9-11.607 0-6.191 4.69-11.285 10.71-11.928-.234-.034-.467-.072-.71-.072h-5.811c-4.805 1.983-8.189 6.71-8.189 12.231 0 6.162 4.22 11.326 9.923 12.797z" fill="#e8e5df"/><circle cx="49" cy="15" fill="#a8d5fe" r="12"/><circle cx="49" cy="15" fill="#cbe6fe" r="9"/><path d="m7.015 35.207h13.557v2h-13.557z" fill="#ffd45a" transform="matrix(.707 -.707 .707 .707 -21.562 20.358)"/><path d="m26.5 27.747h2v13.507h-2z" fill="#ffd45a" transform="matrix(.515 -.858 .858 .515 -16.232 40.331)"/><path d="m33.277 31.162h12.296v2h-12.296z" fill="#ffd45a" transform="matrix(.544 -.839 .839 .544 -8.999 47.776)"/><g fill="#ededed"><path d="m11 12h20c.552 0 1-.448 1-1s-.448-1-1-1h-20c-.552 0-1 .448-1 1s.448 1 1 1z"/><path d="m31 15h-20c-.552 0-1 .448-1 1s.448 1 1 1h20c.552 0 1-.448 1-1s-.448-1-1-1z"/><path d="m31 20h-20c-.552 0-1 .448-1 1s.448 1 1 1h20c.552 0 1-.448 1-1s-.448-1-1-1z"/><path d="m20 52h-4c-.552 0-1-.448-1-1s.448-1 1-1h4c.552 0 1 .448 1 1s-.448 1-1 1z"/><path d="m32 52h-4c-.552 0-1-.448-1-1s.448-1 1-1h4c.552 0 1 .448 1 1s-.448 1-1 1z"/><path d="m44 52h-4c-.552 0-1-.448-1-1s.448-1 1-1h4c.552 0 1 .448 1 1s-.448 1-1 1z"/></g><circle cx="7" cy="43" fill="#febe07" r="3"/><circle cx="35" cy="39" fill="#febe07" r="3"/><circle cx="20" cy="30" fill="#febe07" r="3"/><path d="m49 18c-.552 0-1-.448-1-1v-2c0-.334.167-.646.445-.832l1.84-1.227c.448-.298.715-.797.715-1.336 0-.885-.72-1.605-1.605-1.605h-.789c-.886 0-1.606.72-1.606 1.605 0 .552-.448 1-1 1s-1-.448-1-1c0-1.988 1.617-3.605 3.605-3.605h.789c1.989 0 3.606 1.617 3.606 3.605 0 1.208-.6 2.329-1.605 3l-1.395.93v1.465c0 .552-.448 1-1 1z" fill="#febe07"/><path d="m49 22c-.552 0-1-.448-1-1v-1c0-.552.448-1 1-1s1 .448 1 1v1c0 .552-.448 1-1 1z" fill="#febe07"/><path d="m49 25c-.552 0-1-.448-1-1s.448-1 1-1c4.411 0 8-3.589 8-8s-3.589-8-8-8c-.552 0-1-.448-1-1s.448-1 1-1c5.514 0 10 4.486 10 10s-4.486 10-10 10z" fill="#fefefe"/></svg>